HIERARCHY
ROOT hip
{
	OFFSET 0.000000 0.000000 0.000000 
	CHANNELS 6 Xposition Yposition Zposition Xrotation Zrotation Yrotation
	JOINT abdomen
	{
		OFFSET 0.000000 3.402643 0.000000 
		CHANNELS 3 Xrotation Zrotation Yrotation
		JOINT chest
		{
			OFFSET 0.000000 8.438565 -0.680529 
			CHANNELS 3 Xrotation Zrotation Yrotation
			JOINT neck
			{
				OFFSET 0.000000 10.207942 -0.272212 
				CHANNELS 3 Xrotation Zrotation Yrotation
				JOINT head
				{
					OFFSET 0.000000 3.130431 0.000000 
					CHANNELS 3 Xrotation Zrotation Yrotation
					End Site
					{
						OFFSET 0.000000 3.130435 0.000000 
					}
				}
			}
			JOINT lCollar
			{
				OFFSET 3.470700 6.669187 -0.816635 
				CHANNELS 3 Yrotation Zrotation Xrotation
				JOINT lShldr
				{
					OFFSET 3.198488 0.000000 0.000000 
					CHANNELS 3 Zrotation Yrotation Xrotation
					JOINT lForeArm
					{
						OFFSET 10.139888 0.000000 0.000000 
						CHANNELS 3 Yrotation Zrotation Xrotation
						JOINT lHand
						{
							OFFSET 8.370511 0.000000 0.000000 
							CHANNELS 3 Zrotation Yrotation Xrotation
							End Site
							{
								OFFSET 4.083176 0.000000 0.000000 
							}
						}
					}
				}
			}
			JOINT rCollar
			{
				OFFSET -3.470700 6.669187 -0.816635 
				CHANNELS 3 Yrotation Zrotation Xrotation
				JOINT rShldr
				{
					OFFSET -3.198488 0.000000 0.000000 
					CHANNELS 3 Zrotation Yrotation Xrotation
					JOINT rForeArm
					{
						OFFSET -10.139888 0.000000 0.000000 
						CHANNELS 3 Yrotation Zrotation Xrotation
						JOINT rHand
						{
							OFFSET -8.370511 0.000000 0.000000 
							CHANNELS 3 Zrotation Yrotation Xrotation
							End Site
							{
								OFFSET -4.083176 0.000000 0.000000 
							}
						}
					}
				}
			}
		}
	}
	JOINT lThigh
	{
		OFFSET 5.308129 -1.633274 1.361059 
		CHANNELS 3 Xrotation Zrotation Yrotation
		JOINT lShin
		{
			OFFSET -2.041588 -20.007561 0.000000 
			CHANNELS 3 Xrotation Zrotation Yrotation
			JOINT lFoot
			{
				OFFSET 0.000000 -19.190928 -1.224953 
				CHANNELS 3 Xrotation Yrotation Zrotation
				End Site
				{
					OFFSET 0.000000 -2.449906 4.627600 
				}
			}
		}
	}
	JOINT rThigh
	{
		OFFSET -5.308129 -1.633274 1.361059 
		CHANNELS 3 Xrotation Zrotation Yrotation
		JOINT rShin
		{
			OFFSET 2.041588 -20.007561 0.000000 
			CHANNELS 3 Xrotation Zrotation Yrotation
			JOINT rFoot
			{
				OFFSET 0.000000 -19.190928 -1.224953 
				CHANNELS 3 Xrotation Yrotation Zrotation
				End Site
				{
					OFFSET 0.000000 -2.449906 4.627600 
				}
			}
		}
	}
}
MOTION
Frames: 13
Frame Time: 0.016667
-1.044126 44.410854 0.909545 -0.785353 -5.858830 9.210610 -23.493799 2.061490 0.858946 13.359200 0.368170 0.695695 19.741274 -4.422689 -15.833378 16.163401 10.425500 -3.127440 2.000000 -2.000000 0.000000 88.824501 165.725998 -5.580600 31.904600 -0.330911 0.072315 0.061639 -0.047647 -154.197006 -2.000000 2.000000 0.000000 -44.837299 30.952101 74.559998 -21.914301 0.341686 0.051028 -0.054858 0.012131 -141.257996 -3.477906 3.170170 -1.188800 19.861193 3.962665 1.292891 -12.381766 -6.676000 -1.993448 2.274736 10.076734 -3.257265 8.597138 -2.656715 -0.742339 -7.866416 -13.084711 -2.815061 
-1.074170 44.402504 0.920683 -0.844284 -5.878270 9.392660 -23.562000 2.071000 0.884595 13.212700 0.406792 0.709292 19.793592 -4.352129 -16.099827 16.197201 10.519800 -3.170270 2.000000 -2.000000 0.000000 88.785400 165.639008 -5.815170 31.806999 -0.331034 0.072117 0.061630 -0.047621 -154.186996 -2.000000 2.000000 0.000000 -45.113201 30.844101 73.612801 -21.777599 0.341807 0.050725 -0.054993 0.013794 -141.852997 -3.456521 3.255849 -1.225858 19.861212 3.962548 1.292911 -12.400905 -6.837982 -2.012128 2.388045 10.153647 -3.368859 8.485933 -2.651384 -0.733670 -7.847496 -13.123833 -2.809331 
-1.100594 44.404438 0.908731 -0.854267 -5.985670 9.473370 -23.611401 2.144710 0.914741 13.075900 0.474443 0.728719 19.617634 -4.147890 -16.324362 16.083700 10.658300 -3.173380 2.000000 -2.000000 0.000000 88.658401 165.501999 -5.942440 31.894899 -0.330923 0.072295 0.061736 -0.047960 -154.313995 -2.000000 2.000000 0.000000 -44.807301 30.600700 74.755600 -22.295200 0.341344 0.051870 -0.055106 0.015046 -142.302994 -3.558746 3.386990 -1.413883 19.971565 3.962464 1.312428 -12.391761 -6.811765 -2.008939 2.426512 10.306380 -3.369115 8.309210 -2.628938 -0.744928 -7.739632 -13.173119 -2.818456 
-1.127022 44.406479 0.896781 -0.854421 -6.083310 9.543170 -23.660801 2.218370 0.944799 12.948900 0.542061 0.747916 19.452621 -3.924812 -16.547470 15.980200 10.796500 -3.173400 2.000000 -2.000000 0.000000 88.541100 165.356003 -6.079500 31.992500 -0.330800 0.072493 0.061835 -0.048273 -154.431000 -2.000000 2.000000 0.000000 -44.511200 30.357201 75.903198 -22.822500 0.340861 0.053032 -0.055232 0.016325 -142.761993 -3.639563 3.581665 -1.600702 20.098051 3.975710 1.304363 -12.449717 -6.778629 -2.083258 2.457564 10.453135 -3.400617 8.160166 -2.610362 -0.717023 -7.637246 -13.204343 -2.799429 
-1.141930 44.406479 0.901539 -0.834510 -5.907580 9.636220 -23.641600 2.201460 0.899622 12.958400 0.706632 0.716294 19.324162 -3.834259 -16.500965 15.911400 10.818400 -3.143200 2.000000 -2.000000 0.000000 88.443398 165.356003 -6.001370 31.865601 -0.330960 0.072236 0.061720 -0.047908 -154.294998 -2.000000 2.000000 0.000000 -43.830399 30.124201 78.452103 -23.799101 0.339939 0.055172 -0.055643 0.019939 -144.059998 -3.566784 3.318264 -1.700272 19.879711 3.972072 1.304147 -12.288723 -6.709547 -1.982995 2.388055 10.288607 -3.425690 8.335812 -2.610655 -0.753415 -7.687140 -13.219596 -2.812720 
-1.156837 44.406479 0.906298 -0.804819 -5.741630 9.728550 -23.622200 2.187990 0.863591 12.967800 0.880890 0.683440 19.206732 -3.733218 -16.458387 15.833200 10.850400 -3.103150 2.000000 -2.000000 0.000000 88.345802 165.345993 -5.913510 31.728901 -0.331132 0.071958 0.061606 -0.047542 -154.158005 -2.000000 2.000000 0.000000 -43.169102 29.861601 81.005898 -24.775700 0.338980 0.057296 -0.056136 0.023543 -145.358994 -3.506504 3.121007 -1.787568 19.698814 3.976244 1.286297 -12.186092 -6.644958 -1.975222 2.265359 10.118878 -3.509089 8.582445 -2.637965 -0.741274 -7.770539 -13.262430 -2.831410 
-1.161207 44.412266 0.902557 -0.775348 -5.722140 9.705830 -23.622700 2.211400 0.842720 12.967700 0.948650 0.674414 19.048025 -3.684024 -16.336208 15.722700 10.826100 -3.080380 2.000000 -2.000000 0.000000 88.306602 165.209000 -5.708740 31.797199 -0.331046 0.072097 0.061630 -0.047621 -154.186996 -2.000000 2.000000 0.000000 -42.000000 29.754999 83.588898 -26.396799 0.337310 0.060785 -0.057176 0.029718 -147.595993 -3.494769 3.104200 -1.886312 19.639399 3.974378 1.286283 -12.136098 -6.573727 -1.946691 2.219275 10.111854 -3.437646 8.620919 -2.648528 -0.760857 -7.871434 -13.320255 -2.851457 
-1.165577 44.417915 0.898815 -0.745879 -5.702650 9.692890 -23.622999 2.229300 0.834903 12.977300 1.016430 0.675328 18.896120 -3.648271 -16.198341 15.612600 10.811400 -3.057420 2.000000 -2.000000 0.000000 88.257599 165.080994 -5.494190 31.865601 -0.330960 0.072236 0.061655 -0.047699 -154.216995 -2.000000 2.000000 0.000000 -40.850300 29.609100 86.167099 -28.027599 0.335531 0.064245 -0.068228 0.035874 -149.841995 -3.495555 3.069024 -1.956001 19.598402 3.980244 1.286820 -12.073074 -6.501954 -1.928366 2.192498 10.080323 -3.357064 8.585660 -2.633008 -0.780319 -7.933218 -13.364078 -2.900686 
-1.165857 44.423065 0.884815 -0.716510 -5.761270 9.651640 -23.594299 2.265460 0.819742 13.006500 1.045550 0.671999 18.912809 -3.668977 -16.092905 15.630900 10.772300 -3.022400 2.000000 -2.000000 0.000000 88.208702 164.983002 -5.347930 31.982800 -0.330812 0.072473 0.061696 -0.047830 -154.264999 -2.000000 2.000000 0.000000 -39.074600 29.355499 89.140602 -30.723000 0.332376 0.069850 -0.069934 0.042635 -152.332001 -3.581607 3.133232 -1.950199 19.680428 3.968302 1.285063 -12.164114 -6.451612 -1.930287 2.150339 10.161613 -3.278270 8.542342 -2.668705 -0.743676 -7.835316 -13.439443 -2.826535 
-1.166127 44.428074 0.870815 -0.687124 -5.810130 9.600460 -23.565701 2.298210 0.795854 13.045500 1.084370 0.667608 18.929562 -3.689672 -15.987465 15.649200 10.733300 -2.987420 2.000000 -2.000000 0.000000 88.150002 164.884995 -5.201680 32.099998 -0.330664 0.072710 0.061728 -0.047934 -154.304993 -2.000000 2.000000 0.000000 -37.318501 29.023300 92.084801 -33.428101 0.328949 0.075319 -0.071942 0.049341 -154.832001 -3.681871 3.181057 -1.944639 19.781311 3.963777 1.293532 -12.239186 -6.412750 -1.926707 2.233267 10.197297 -3.165358 8.259928 -2.620151 -0.725687 -7.607778 -13.494829 -2.833788 
-1.154118 44.426399 0.865896 -0.716685 -5.897980 9.604510 -23.497400 2.311490 0.803158 13.123800 1.036140 0.675401 18.956985 -3.687533 -15.971808 15.697700 10.702600 -2.954850 2.000000 -2.000000 0.000000 88.111000 164.983002 -5.123330 32.129200 -0.330627 0.072769 0.061753 -0.048012 -154.334000 -2.000000 2.000000 0.000000 -34.643799 28.544300 95.312103 -37.724998 0.322986 0.083656 -0.063863 0.054284 -156.697006 -3.709592 3.263461 -1.911103 19.879850 3.967083 1.283823 -12.287641 -6.401364 -1.935021 2.339593 10.272015 -3.102896 8.072524 -2.597251 -0.727454 -7.500494 -13.512632 -2.817171 
-1.142109 44.424603 0.860977 -0.746257 -5.985820 9.608650 -23.419300 2.324900 0.810781 13.202000 0.987900 0.683062 18.994139 -3.680208 -15.951232 15.746500 10.681500 -2.930150 2.000000 -2.000000 0.000000 88.071999 165.089996 -5.054720 32.158600 -0.330590 0.072828 0.061769 -0.048064 -154.352997 -2.000000 2.000000 0.000000 -32.008400 27.928200 98.500000 -42.012100 0.316430 0.091506 -0.065720 0.059195 -158.572006 -3.735506 3.350054 -1.897856 19.990585 3.964974 1.303043 -12.329868 -6.381157 -1.938047 2.427321 10.359892 -3.042298 7.929696 -2.620893 -0.692093 -7.403431 -13.531580 -2.780905 
-1.142895 44.428848 0.853785 -0.736437 -5.985840 9.558800 -23.282499 2.368640 0.871224 13.367900 1.065780 0.705449 18.919544 -3.661913 -16.158312 15.787400 10.708600 -2.965870 2.000000 -2.000000 0.000000 88.013496 165.274994 -4.937100 32.344101 -0.330354 0.073203 0.061818 -0.048221 -154.412003 -2.000000 2.000000 0.000000 -28.406300 27.106501 101.717003 -48.018002 0.306298 0.101633 -0.077166 0.063264 -160.143997 -3.764477 3.342680 -1.867394 20.011484 3.961922 1.312170 -12.337029 -6.348122 -1.921961 2.449257 10.357243 -2.941817 7.849522 -2.614552 -0.692651 -7.347784 -13.595020 -2.759287 
